HIERARCHY
ROOT Hips
{
	OFFSET 2.089284 1.301217 -4.152254
	CHANNELS 6 Xposition Yposition Zposition Zrotation Yrotation Xrotation 
	JOINT Spine
	{
		OFFSET -0.000064 8.340418 -2.713938
		CHANNELS 3 Zrotation Yrotation Xrotation
		JOINT Spine1
		{
			OFFSET 0.000042 11.909946 -2.100034
			CHANNELS 3 Zrotation Yrotation Xrotation
			JOINT Spine2
			{
				OFFSET 0.000019 12.047692 -1.054080
				CHANNELS 3 Zrotation Yrotation Xrotation
				JOINT Spine3
				{
					OFFSET -0.000032 12.093748 -0.000043
					CHANNELS 3 Zrotation Yrotation Xrotation
					JOINT Neck
					{
						OFFSET 0.000009 15.549112 1.554868
						CHANNELS 3 Zrotation Yrotation Xrotation
						JOINT Neck1
						{
							OFFSET 0.000069 4.687376 0.410074
							CHANNELS 3 Zrotation Yrotation Xrotation
							JOINT Head
							{
								OFFSET 0.000037 4.633817 0.816975
								CHANNELS 3 Zrotation Yrotation Xrotation
								JOINT HeadEnd
								{
									OFFSET -0.000010 9.727668 -0.000044
									CHANNELS 3 Zrotation Yrotation Xrotation
									End Site
									{
										OFFSET 0.000000 0.000000 0.000000
									}
								}
							}
						}
					}
					JOINT RightShoulder
					{
						OFFSET -0.000023 11.106450 6.072603
						CHANNELS 3 Zrotation Yrotation Xrotation
						JOINT RightArm
						{
							OFFSET -19.427902 0.000053 0.000063
							CHANNELS 3 Zrotation Yrotation Xrotation
							JOINT RightForeArm
							{
								OFFSET -29.350727 -0.000029 -0.000061
								CHANNELS 3 Zrotation Yrotation Xrotation
								JOINT RightHand
								{
									OFFSET -27.018029 -0.000028 0.000029
									CHANNELS 3 Zrotation Yrotation Xrotation
									JOINT RightHandMiddle1
									{
										OFFSET -9.244044 -0.000005 -0.000006
										CHANNELS 3 Zrotation Yrotation Xrotation
										JOINT RightHandMiddle2
										{
											OFFSET -4.870018 -0.000007 0.000024
											CHANNELS 3 Zrotation Yrotation Xrotation
											JOINT RightHandMiddle3
											{
												OFFSET -3.169049 -0.000007 0.000017
												CHANNELS 3 Zrotation Yrotation Xrotation
												JOINT RightHandMiddle4
												{
													OFFSET -1.888365 0.000006 -0.000028
													CHANNELS 3 Zrotation Yrotation Xrotation
													End Site
													{
														OFFSET 0.000000 0.000000 0.000000
													}
												}
											}
										}
									}
									JOINT RightHandRing
									{
										OFFSET -0.250014 -0.249980 -0.956484
										CHANNELS 3 Zrotation Yrotation Xrotation
										JOINT RightHandRing1
										{
											OFFSET -8.140193 -0.000004 -0.734578
											CHANNELS 3 Zrotation Yrotation Xrotation
											JOINT RightHandRing2
											{
												OFFSET -4.501548 0.000035 -0.406267
												CHANNELS 3 Zrotation Yrotation Xrotation
												JOINT RightHandRing3
												{
													OFFSET -3.068861 -0.000006 -0.276959
													CHANNELS 3 Zrotation Yrotation Xrotation
													JOINT RightHandRing4
													{
														OFFSET -1.869926 0.000022 -0.168758
														CHANNELS 3 Zrotation Yrotation Xrotation
														End Site
														{
															OFFSET 0.000000 0.000000 0.000000
														}
													}
												}
											}
										}
										JOINT RightHandPinky
										{
											OFFSET -0.162997 -0.250032 -0.975117
											CHANNELS 3 Zrotation Yrotation Xrotation
											JOINT RightHandPinky1
											{
												OFFSET -6.681490 0.000008 -1.494095
												CHANNELS 3 Zrotation Yrotation Xrotation
												JOINT RightHandPinky2
												{
													OFFSET -3.580950 0.000013 -0.800763
													CHANNELS 3 Zrotation Yrotation Xrotation
													JOINT RightHandPinky3
													{
														OFFSET -2.276503 0.000018 -0.509079
														CHANNELS 3 Zrotation Yrotation Xrotation
														JOINT RightHandPinky4
														{
															OFFSET -1.690350 0.000034 -0.377986
															CHANNELS 3 Zrotation Yrotation Xrotation
															End Site
															{
																OFFSET 0.000000 0.000000 0.000000
															}
														}
													}
												}
											}
										}
									}
									JOINT RightHandIndex
									{
										OFFSET -0.250039 -0.250025 0.956501
										CHANNELS 3 Zrotation Yrotation Xrotation
										JOINT RightHandIndex1
										{
											OFFSET -8.934112 -0.000001 0.806263
											CHANNELS 3 Zrotation Yrotation Xrotation
											JOINT RightHandIndex2
											{
												OFFSET -4.694692 0.000035 0.423701
												CHANNELS 3 Zrotation Yrotation Xrotation
												JOINT RightHandIndex3
												{
													OFFSET -2.811736 -0.000020 0.253761
													CHANNELS 3 Zrotation Yrotation Xrotation
													JOINT RightHandIndex4
													{
														OFFSET -1.709980 -0.000012 0.154330
														CHANNELS 3 Zrotation Yrotation Xrotation
														End Site
														{
															OFFSET 0.000000 0.000000 0.000000
														}
													}
												}
											}
										}
										JOINT RightHandThumb1
										{
											OFFSET -0.163039 -0.750029 0.975089
											CHANNELS 3 Zrotation Yrotation Xrotation
											JOINT RightHandThumb2
											{
												OFFSET -5.411674 0.835513 2.244723
												CHANNELS 3 Zrotation Yrotation Xrotation
												JOINT RightHandThumb3
												{
													OFFSET -3.567180 0.550769 1.479608
													CHANNELS 3 Zrotation Yrotation Xrotation
													JOINT RightHandThumb4
													{
														OFFSET -2.150551 0.332019 0.892006
														CHANNELS 3 Zrotation Yrotation Xrotation
														End Site
														{
															OFFSET 0.000000 0.000000 0.000000
														}
													}
												}
											}
										}
									}
								}
							}
						}
					}
					JOINT LeftShoulder
					{
						OFFSET -0.000053 11.106458 6.072581
						CHANNELS 3 Zrotation Yrotation Xrotation
						JOINT LeftArm
						{
							OFFSET 19.427856 -0.000115 -0.000031
							CHANNELS 3 Zrotation Yrotation Xrotation
							JOINT LeftForeArm
							{
								OFFSET 29.350737 -0.000016 0.000043
								CHANNELS 3 Zrotation Yrotation Xrotation
								JOINT LeftHand
								{
									OFFSET 27.018125 -0.000011 -0.000072
									CHANNELS 3 Zrotation Yrotation Xrotation
									JOINT LeftHandMiddle1
									{
										OFFSET 9.402689 -0.000009 0.000004
										CHANNELS 3 Zrotation Yrotation Xrotation
										JOINT LeftHandMiddle2
										{
											OFFSET 4.950096 0.000019 0.000030
											CHANNELS 3 Zrotation Yrotation Xrotation
											JOINT LeftHandMiddle3
											{
												OFFSET 3.211977 -0.000018 -0.000014
												CHANNELS 3 Zrotation Yrotation Xrotation
												JOINT LeftHandMiddle4
												{
													OFFSET 1.927581 0.000013 -0.000082
													CHANNELS 3 Zrotation Yrotation Xrotation
													End Site
													{
														OFFSET 0.000000 0.000000 0.000000
													}
												}
											}
										}
									}
									JOINT LeftHandRing
									{
										OFFSET 0.249984 -0.249998 -0.906118
										CHANNELS 3 Zrotation Yrotation Xrotation
										JOINT LeftHandRing1
										{
											OFFSET 8.286055 0.000025 -0.747769
											CHANNELS 3 Zrotation Yrotation Xrotation
											JOINT LeftHandRing2
											{
												OFFSET 4.585461 -0.000018 -0.413798
												CHANNELS 3 Zrotation Yrotation Xrotation
												JOINT LeftHandRing3
												{
													OFFSET 3.124411 0.000018 -0.281964
													CHANNELS 3 Zrotation Yrotation Xrotation
													JOINT LeftHandRing4
													{
														OFFSET 1.908776 -0.000031 -0.172258
														CHANNELS 3 Zrotation Yrotation Xrotation
														End Site
														{
															OFFSET 0.000000 0.000000 0.000000
														}
													}
												}
											}
										}
										JOINT LeftHandPinky
										{
											OFFSET 0.167545 -0.250003 -0.924977
											CHANNELS 3 Zrotation Yrotation Xrotation
											JOINT LeftHandPinky1
											{
												OFFSET 6.823489 0.000007 -1.525889
												CHANNELS 3 Zrotation Yrotation Xrotation
												JOINT LeftHandPinky2
												{
													OFFSET 3.642848 -0.000000 -0.814602
													CHANNELS 3 Zrotation Yrotation Xrotation
													JOINT LeftHandPinky3
													{
														OFFSET 2.333102 -0.000019 -0.521753
														CHANNELS 3 Zrotation Yrotation Xrotation
														JOINT LeftHandPinky4
														{
															OFFSET 1.725442 -0.000007 -0.385850
															CHANNELS 3 Zrotation Yrotation Xrotation
															End Site
															{
																OFFSET 0.000000 0.000000 0.000000
															}
														}
													}
												}
											}
										}
									}
									JOINT LeftHandIndex
									{
										OFFSET 0.250025 -0.250006 0.906171
										CHANNELS 3 Zrotation Yrotation Xrotation
										JOINT LeftHandIndex1
										{
											OFFSET 9.088011 -0.000002 0.820125
											CHANNELS 3 Zrotation Yrotation Xrotation
											JOINT LeftHandIndex2
											{
												OFFSET 4.776543 0.000012 0.431081
												CHANNELS 3 Zrotation Yrotation Xrotation
												JOINT LeftHandIndex3
												{
													OFFSET 2.865127 -0.000008 0.258580
													CHANNELS 3 Zrotation Yrotation Xrotation
													JOINT LeftHandIndex4
													{
														OFFSET 1.745469 0.000005 0.157506
														CHANNELS 3 Zrotation Yrotation Xrotation
														End Site
														{
															OFFSET 0.000000 0.000000 0.000000
														}
													}
												}
											}
										}
										JOINT LeftHandThumb1
										{
											OFFSET 0.167552 -0.749992 0.924982
											CHANNELS 3 Zrotation Yrotation Xrotation
											JOINT LeftHandThumb2
											{
												OFFSET 5.551446 0.857132 2.302692
												CHANNELS 3 Zrotation Yrotation Xrotation
												JOINT LeftHandThumb3
												{
													OFFSET 3.625635 0.559788 1.503883
													CHANNELS 3 Zrotation Yrotation Xrotation
													JOINT LeftHandThumb4
													{
														OFFSET 2.195241 0.338955 0.910533
														CHANNELS 3 Zrotation Yrotation Xrotation
														End Site
														{
															OFFSET 0.000000 0.000000 0.000000
														}
													}
												}
											}
										}
									}
								}
							}
						}
					}
				}
			}
		}
	}
	JOINT RightUpLeg
	{
		OFFSET -8.786545 -0.000042 0.000043
		CHANNELS 3 Zrotation Yrotation Xrotation
		JOINT RightLeg
		{
			OFFSET -0.000040 -42.170400 -0.000019
			CHANNELS 3 Zrotation Yrotation Xrotation
			JOINT RightFoot
			{
				OFFSET -0.000022 -45.949140 -0.000053
				CHANNELS 3 Zrotation Yrotation Xrotation
				JOINT RightForeFoot
				{
					OFFSET 0.000028 -4.685788 -0.000022
					CHANNELS 3 Zrotation Yrotation Xrotation
					JOINT RightToeBase
					{
						OFFSET 0.000005 0.000010 18.351066
						CHANNELS 3 Zrotation Yrotation Xrotation
						JOINT RightToeBaseEnd
						{
							OFFSET 0.000085 -0.000019 6.416853
							CHANNELS 3 Zrotation Yrotation Xrotation
							End Site
							{
								OFFSET 0.000000 0.000000 0.000000
							}
						}
					}
				}
			}
		}
	}
	JOINT LeftUpLeg
	{
		OFFSET 8.786504 0.000056 -0.000041
		CHANNELS 3 Zrotation Yrotation Xrotation
		JOINT LeftLeg
		{
			OFFSET -0.000008 -42.170436 0.000020
			CHANNELS 3 Zrotation Yrotation Xrotation
			JOINT LeftFoot
			{
				OFFSET 0.000008 -45.949141 -0.000030
				CHANNELS 3 Zrotation Yrotation Xrotation
				JOINT LeftForeFoot
				{
					OFFSET 0.000020 -4.685845 -0.000008
					CHANNELS 3 Zrotation Yrotation Xrotation
					JOINT LeftToeBase
					{
						OFFSET 0.000053 -0.000029 18.351072
						CHANNELS 3 Zrotation Yrotation Xrotation
						JOINT LeftToeBaseEnd
						{
							OFFSET 0.000034 0.000032 7.522011
							CHANNELS 3 Zrotation Yrotation Xrotation
							End Site
							{
								OFFSET 0.000000 0.000000 0.000000
							}
						}
					}
				}
			}
		}
	}
}
MOTION
Frames: 4
Frame Time: 0.066667
2.335377 1.353395 4.881486 0.293453 21.560507 -4.473675 0.718672 -0.564956 2.702251 -0.345365 0.107790 -1.973787 -0.756302 1.450189 0.607199 0.837510 0.862735 7.813667 7.625662 -3.654349 2.517163 -11.696125 0.797564 4.894270 -3.583586 0.601863 1.768695 -0.001420 0.000240 0.000746 9.927314 -9.758121 -1.684058 46.381329 4.825057 -11.435706 179.986984 79.445526 127.167107 32.131294 -22.093292 -0.136668 20.272205 -6.284004 -0.002113 10.045504 0.000571 -0.000538 14.543290 0.000808 0.000136 -0.000777 -0.001676 0.000370 -0.857225 -2.239623 -11.038732 23.467781 -7.764015 -2.054088 20.963366 0.313062 -1.851770 12.803324 0.129241 -1.144661 0.000013 -0.000674 0.001167 -2.700704 -4.360425 -4.850487 19.779366 -6.739655 -4.258979 28.639227 1.505333 -6.143210 19.898407 0.735214 -4.366906 -0.000613 -0.001901 0.001312 -1.737073 7.538196 -2.057229 10.176323 -5.239858 0.915420 1.455583 0.003083 0.133216 10.989638 -0.091956 0.984823 0.000434 0.001446 -0.001382 5.346930 12.292733 40.531788 -2.513889 0.570808 -0.955716 4.453876 -2.867018 1.317078 0.000782 0.000979 -0.000605 -13.358325 6.656270 -1.593147 -46.970474 1.727023 15.055968 -179.996033 -59.941559 137.929840 -16.795172 25.747181 -0.524508 -16.279219 3.235983 -0.000430 -6.606503 -0.000113 0.000376 -11.979650 -0.000968 0.001906 -0.000852 -0.000351 0.000163 -1.008276 0.471977 -10.513141 -11.083582 1.389570 -0.992797 -14.939476 -0.160819 -1.328120 -3.470016 -0.007674 -0.313379 0.002047 -0.000425 0.001041 -0.535090 -0.449914 -10.749581 -5.126984 12.062933 -1.114248 -15.778713 -0.488203 -3.487230 -16.417038 -0.522568 -3.624409 0.002676 -0.001032 -0.000280 2.389928 -5.914312 -3.458879 -15.419993 1.553366 1.374436 -3.255207 0.006961 0.289620 -5.755097 0.021742 0.518311 0.000222 0.000201 0.001060 -8.811339 3.113043 43.129646 1.316136 4.608560 -1.179355 0.000000 0.000000 0.000000 -0.001280 0.000308 0.000185 -3.725808 -4.332702 12.428411 -0.001571 0.000684 2.137968 -0.000000 -0.000000 -0.000000 -0.000000 -0.000000 0.000000 -0.000000 0.000000 0.000000 0.000000 0.000000 0.000000 2.843256 -8.627334 10.834149 -0.001461 -0.001751 0.411789 -0.000000 0.000000 -0.000000 -0.000000 -0.000000 0.000000 -0.000000 0.000000 0.000000 0.000000 -0.000000 -0.000000 
2.367852 1.358284 4.883967 0.298211 21.454857 -4.562342 0.683500 -0.554765 2.685921 -0.346136 0.103438 -1.985244 -0.770127 1.377263 0.566840 0.776089 0.843700 7.758632 7.490556 -3.786110 2.479064 -11.569056 0.638966 5.034017 -3.551149 0.587650 1.801001 -0.001057 0.000202 0.001135 9.302324 -9.671536 -1.561675 45.340496 6.296593 -10.903211 179.977295 83.378036 126.025726 31.129290 -21.444971 -0.108445 20.360296 -6.193746 -0.002745 10.644919 0.000305 -0.000200 14.766641 0.000734 0.000092 -0.000834 -0.001913 0.000039 -0.908189 -2.247465 -10.996838 22.918530 -7.733155 -2.008204 21.057884 0.342126 -1.859862 12.790997 0.131240 -1.143456 -0.000028 -0.000426 0.001089 -2.729003 -4.404887 -4.818422 19.070892 -6.896337 -4.112114 28.668400 1.554375 -6.150502 19.981237 0.760861 -4.384869 -0.000636 -0.001856 0.001349 -1.656957 7.592865 -2.215551 11.082047 -5.656388 1.000565 2.701526 -0.019896 0.245365 11.680119 -0.108871 1.045435 0.000484 0.001260 -0.001355 5.338933 12.328207 40.572330 -2.715013 0.784245 -1.023568 4.348729 -2.804025 1.276209 0.001041 0.001032 -0.000739 -12.794080 6.470675 -1.492272 -44.927071 -1.323071 15.323211 -179.994156 -61.437439 135.803253 -20.547415 25.344671 -0.567386 -15.820749 3.437011 -0.000914 -6.626389 -0.000253 0.000278 -11.745720 -0.000631 0.001866 -0.000680 -0.000323 0.000531 -0.960491 0.451209 -10.278949 -10.553908 1.483296 -0.945398 -14.620408 -0.154567 -1.300235 -3.176722 -0.005108 -0.287045 0.001893 -0.000514 0.000795 -0.575594 -0.439385 -10.733922 -4.465069 11.979605 -0.970713 -15.457035 -0.466949 -3.417753 -16.305044 -0.516666 -3.600284 0.002711 -0.001167 -0.000244 2.326892 -5.893702 -3.307518 -15.342541 1.691804 1.367586 -3.576019 0.007590 0.319115 -5.949522 0.023286 0.535772 0.000204 0.000258 0.000951 -8.810818 3.174747 43.188713 1.120809 4.528319 -1.086991 0.000000 0.000000 0.000000 -0.001194 0.000740 0.000315 -3.777017 -4.302038 12.340443 -0.001507 0.000557 2.392178 -0.000000 -0.000000 -0.000000 -0.000000 -0.000000 0.000000 -0.000000 0.000000 0.000000 0.000000 0.000000 0.000000 2.782485 -8.436127 10.827220 -0.001429 -0.001999 0.601638 -0.000000 0.000000 -0.000000 -0.000000 -0.000000 0.000000 -0.000000 0.000000 0.000000 0.000000 -0.000000 -0.000000 
2.298613 1.367872 4.943271 0.285568 21.332012 -4.669448 0.658430 -0.550124 2.691162 -0.343624 0.093983 -1.996216 -0.766916 1.255187 0.519124 0.736333 0.810451 7.677585 7.344803 -3.868829 2.384748 -11.443257 0.526459 5.255080 -3.518741 0.576311 1.867332 -0.000600 0.000234 0.001298 8.683493 -9.550716 -1.436351 44.605125 7.816220 -9.824876 179.941559 87.526459 124.583504 29.995289 -20.860338 -0.085562 20.703135 -6.097597 -0.003087 10.874828 0.000187 0.000193 14.737878 0.000700 -0.000070 -0.000811 -0.001933 -0.000173 -0.950450 -2.233818 -10.945300 22.776125 -7.713742 -1.996614 20.859400 0.342381 -1.842742 12.644017 0.128500 -1.130380 0.000043 -0.000009 0.000992 -2.748580 -4.425637 -4.806250 18.675383 -6.904767 -4.030886 28.470940 1.547929 -6.112309 19.923847 0.763095 -4.372592 -0.000738 -0.001789 0.001341 -1.605474 7.615708 -2.349684 12.057762 -5.964538 1.089304 3.484424 -0.024975 0.315537 12.113475 -0.117215 1.083306 0.000613 0.001227 -0.001362 5.267890 12.373976 40.560120 -2.988276 0.925582 -1.124383 4.218241 -2.719260 1.236774 0.001089 0.001104 -0.000844 -12.069628 6.233322 -1.367798 -42.886784 -5.222621 15.176736 -179.991699 -63.683594 133.185074 -24.065866 24.541477 -0.566097 -15.505229 3.576284 -0.001394 -6.413656 -0.000417 -0.000035 -11.529727 -0.000404 0.001466 -0.000659 -0.000073 0.000785 -0.924022 0.400130 -10.148292 -10.266859 1.602956 -0.919347 -14.128236 -0.143924 -1.257663 -2.950337 -0.003528 -0.266916 0.001971 -0.000312 0.000537 -0.599717 -0.467268 -10.724435 -4.059151 11.913806 -0.882485 -15.093039 -0.444686 -3.338626 -16.133728 -0.507471 -3.563082 0.002794 -0.001044 -0.000348 2.313455 -5.847864 -3.195977 -15.167416 1.753543 1.351954 -3.571401 0.006870 0.319665 -6.043406 0.024242 0.544331 -0.000059 0.000346 0.000879 -8.684777 3.156429 43.198620 0.944009 4.522758 -1.009165 0.000000 0.000000 0.000000 -0.001007 0.000822 0.000418 -3.797182 -4.295493 12.232040 -0.001308 0.000479 2.630793 -0.000000 -0.000000 -0.000000 0.000000 -0.000000 0.000000 -0.000000 0.000000 0.000000 0.000000 0.000000 0.000000 2.757211 -8.242477 10.833666 -0.001286 -0.002295 0.792571 -0.000000 0.000000 -0.000000 -0.000000 -0.000000 0.000000 -0.000000 0.000000 0.000000 0.000000 -0.000000 0.000000 
2.239149 1.383191 5.005254 0.263432 21.144896 -4.768178 0.641079 -0.554255 2.709680 -0.337032 0.078079 -2.007951 -0.748317 1.067984 0.458227 0.715652 0.759819 7.567208 7.217759 -3.889048 2.237546 -11.340626 0.503143 5.531157 -3.496718 0.571665 1.960812 -0.000047 0.000286 0.001281 8.122737 -9.394235 -1.316971 44.137897 9.169339 -7.942852 0.083151 88.477348 -56.586494 28.851049 -20.425331 -0.071960 21.245693 -5.883270 -0.003243 10.764110 0.000160 0.000421 14.624758 0.000676 -0.000142 -0.000791 -0.001830 -0.000298 -0.926835 -2.204022 -11.085160 23.018356 -7.666237 -2.017496 20.676891 0.337922 -1.826879 12.442882 0.124096 -1.112735 0.000309 0.000523 0.000887 -2.741032 -4.375790 -4.797701 18.604866 -6.889729 -4.016744 28.153873 1.518623 -6.050038 19.657776 0.744082 -4.315726 -0.000837 -0.001654 0.001383 -1.618619 7.621312 -2.559508 12.868035 -6.095154 1.162519 3.751555 -0.024818 0.339153 12.215691 -0.119035 1.092034 0.000681 0.001326 -0.001452 5.186871 12.340899 40.571373 -3.255344 0.934531 -1.239355 4.038890 -2.601279 1.186254 0.000939 0.001241 -0.000928 -11.201539 5.985228 -1.229279 -40.873371 -9.810563 14.307648 -179.988815 -66.756561 130.047394 -26.812643 23.371490 -0.511287 -15.498881 3.594539 -0.001685 -6.191774 -0.000503 -0.000349 -11.420651 -0.000160 0.000934 -0.000677 0.000263 0.000794 -0.914908 0.331437 -10.171811 -10.257622 1.710724 -0.918071 -13.778816 -0.138532 -1.227564 -2.818044 -0.003034 -0.255231 0.002021 -0.000058 0.000299 -0.612827 -0.528175 -10.704281 -3.897037 11.846687 -0.846825 -14.795521 -0.427160 -3.273885 -16.000635 -0.499423 -3.533871 0.002830 -0.000850 -0.000506 2.335748 -5.796891 -3.187031 -15.148175 1.789745 1.350192 -3.487033 0.004933 0.313039 -6.074046 0.024329 0.547138 -0.000386 0.000555 0.000843 -8.514037 3.191365 43.227200 0.826925 4.617520 -0.970178 0.000000 0.000000 0.000000 -0.000852 0.000762 0.000740 -3.772329 -4.310091 12.103146 -0.001066 0.000484 2.831882 -0.000000 -0.000000 -0.000000 0.000000 -0.000000 0.000000 -0.000000 0.000000 0.000000 0.000000 0.000000 0.000000 2.750291 -8.027521 10.848494 -0.001032 -0.002762 0.960354 -0.000000 0.000000 -0.000000 -0.000000 0.000000 0.000000 -0.000000 0.000000 0.000000 0.000000 -0.000000 0.000000 
